<svg width="413" height="609" viewBox="0 0 413 609" fill="none" xmlns="http://www.w3.org/2000/svg">
<g clip-path="url(#clip0_397_725)">
<path d="M360.546 609.004H167.426C138.786 609.004 115.486 585.704 115.486 557.064V52.754C115.486 24.114 138.786 0.813965 167.426 0.813965H360.546C389.186 0.813965 412.486 24.114 412.486 52.754V557.064C412.486 585.704 389.186 609.004 360.546 609.004ZM167.426 2.81396C139.886 2.81396 117.486 25.214 117.486 52.754V557.064C117.486 584.604 139.886 607.004 167.426 607.004H360.546C388.086 607.004 410.486 584.604 410.486 557.064V52.754C410.486 25.214 388.086 2.81396 360.546 2.81396H167.426Z" fill="#DEDFE0"/>
<path d="M291.336 48.1739H236.646C229.426 48.1739 223.556 42.3039 223.556 35.0839C223.556 27.8639 229.426 21.9939 236.646 21.9939H291.336C298.556 21.9939 304.426 27.8639 304.426 35.0839C304.426 42.3039 298.556 48.1739 291.336 48.1739Z" fill="#DADBDC"/>
<path d="M215.326 607.954C215.326 608.494 214.886 608.934 214.346 608.934H1.22609C0.686094 608.934 0.246094 608.494 0.246094 607.954C0.246094 607.414 0.686094 606.974 1.22609 606.974H214.346C214.886 606.974 215.326 607.414 215.326 607.954Z" fill="#3F3D58"/>
<path d="M119.406 304.924L139.056 311.384V283.104H121.226L119.406 304.924Z" fill="#F6AAAE"/>
<path d="M136.616 290.934C147.43 290.934 156.196 282.168 156.196 271.354C156.196 260.54 147.43 251.774 136.616 251.774C125.802 251.774 117.036 260.54 117.036 271.354C117.036 282.168 125.802 290.934 136.616 290.934Z" fill="#F6AAAE"/>
<path d="M131.636 272.884L134.336 276.164L139.216 267.624C139.216 267.624 145.446 267.944 145.446 263.324C145.446 258.704 151.166 258.574 151.166 258.574C151.166 258.574 159.256 244.444 142.496 248.164C142.496 248.164 130.866 240.194 125.086 247.004C125.086 247.004 107.356 255.934 112.426 271.484L120.856 287.504L122.766 283.874C122.766 283.874 121.606 268.644 131.636 272.884Z" fill="#2F2E43"/>
<path d="M129.816 572.904H113.996V595.344H129.816V572.904Z" fill="#F6AAAE"/>
<path d="M128.076 608.204C125.366 608.454 111.836 609.514 111.156 606.414C110.536 603.564 111.446 600.584 111.576 600.184C112.876 587.244 113.356 587.094 113.646 587.004C114.106 586.874 115.456 587.504 117.636 588.914L117.776 589.004L117.806 589.164C117.846 589.364 118.816 594.114 123.396 593.394C126.536 592.894 127.556 592.204 127.886 591.864C127.616 591.744 127.286 591.534 127.056 591.164C126.716 590.634 126.656 589.954 126.876 589.144C127.466 586.994 129.236 583.814 129.306 583.684L129.506 583.324L147.486 595.454L158.586 598.624C159.426 598.864 160.096 599.464 160.436 600.264C160.906 601.384 160.616 602.684 159.716 603.494C157.696 605.304 153.696 608.414 149.486 608.794C148.366 608.894 146.886 608.934 145.226 608.934C138.276 608.934 128.146 608.214 128.066 608.204L128.076 608.204Z" fill="#2F2E43"/>
<path d="M80.4732 539.204L66.1694 556.495L78.359 566.579L92.6628 549.288L80.4732 539.204Z" fill="#F6AAAE"/>
<path d="M68.8362 575.394C66.5962 573.854 55.4862 566.054 56.9362 563.234C58.2762 560.644 60.8762 558.934 61.2362 558.704C70.4862 549.564 70.9562 549.754 71.2362 549.874C71.6762 550.064 72.3062 551.414 73.0962 553.884L73.1462 554.034L73.0662 554.174C72.9662 554.354 70.6862 558.634 74.6762 560.994C77.4162 562.614 78.6462 562.724 79.1062 562.674C78.9762 562.414 78.8562 562.034 78.9062 561.604C78.9762 560.984 79.3662 560.414 80.0662 559.934C81.8962 558.654 85.2762 557.334 85.4262 557.274L85.8062 557.124L91.9262 577.934L98.4562 587.454C98.9462 588.174 99.0862 589.064 98.8362 589.904C98.4862 591.064 97.4362 591.884 96.2162 591.934C93.5062 592.044 88.4462 591.884 84.9562 589.494C84.0362 588.864 82.8662 587.954 81.5862 586.894C76.2362 582.464 68.8862 575.454 68.8262 575.394L68.8362 575.394Z" fill="#2F2E43"/>
<path d="M155.986 399.834H101.726L113.786 579.194H131.876L155.996 399.834L155.986 399.834Z" fill="#2F2E43"/>
<path d="M144.936 409.714L155.986 399.834L150.456 498.474L88.6559 557.254L73.2559 544.524L109.256 497.804L144.936 409.714Z" fill="#2F2E43"/>
<path d="M144.936 294.324L118.136 289.974L109.816 304.524C99.2361 323.024 94.9261 344.444 97.5161 365.594L101.726 399.844H155.986L144.936 294.334L144.936 294.324Z" fill="#DADBDC"/>
<path d="M123.176 432.124C124.286 437.654 122.216 442.704 118.566 443.404C114.906 444.094 111.046 440.174 109.936 434.634C109.466 432.424 109.546 430.144 110.176 427.974L105.776 404.464L117.276 402.674L120.386 426.044C121.806 427.834 122.766 429.914 123.176 432.134V432.124Z" fill="#F6AAAE"/>
<path d="M109.186 425.754L92.2959 373.574V373.494L98.6759 319.764C99.6559 311.534 106.636 305.334 114.916 305.334C119.986 305.334 124.686 307.624 127.806 311.624C130.926 315.624 132.016 320.734 130.786 325.664L119.516 370.734L122.206 421.884L109.176 425.754L109.186 425.754Z" fill="#DADBDC"/>
<path d="M205.816 311.104C210.506 336.154 234.616 352.664 259.676 347.964C267.256 346.544 274.056 343.344 279.716 338.874L336.716 400.354C340.206 404.114 346.156 404.104 349.636 400.324C352.886 396.794 352.706 391.314 349.226 388.004L288.326 329.964C295.646 320.024 298.986 307.194 296.536 294.104C291.846 269.054 267.736 252.544 242.676 257.244C217.616 261.944 201.116 286.044 205.816 311.104ZM215.656 309.264C211.986 289.644 224.906 270.764 244.526 267.094C264.146 263.424 283.026 276.344 286.696 295.964C290.366 315.584 277.446 334.464 257.826 338.134C238.206 341.804 219.326 328.884 215.656 309.264Z" fill="#00BFA6"/>
</g>
<defs>
<clipPath id="clip0_397_725">
<rect width="412.24" height="608.19" fill="white" transform="translate(0.246094 0.813965)"/>
</clipPath>
</defs>
</svg>
