<svg width="367" height="376" viewBox="0 0 367 376" fill="none" xmlns="http://www.w3.org/2000/svg">
<g clip-path="url(#clip0_6_2629)">
<path d="M66.0358 364.894H71.6583L74.334 343.207H66.0358V364.894Z" fill="#A0616A"/>
<path d="M64.2008 361.043L73.1834 360.507V364.355L81.7235 370.254C82.1454 370.545 82.4631 370.963 82.6302 371.448C82.7974 371.932 82.8053 372.458 82.6527 372.947C82.5002 373.437 82.1952 373.864 81.7822 374.168C81.3693 374.472 80.8701 374.636 80.3575 374.636H69.6633L67.82 370.829L67.1003 374.636H63.0681L64.2008 361.043Z" fill="#2F2E41"/>
<path d="M111.005 364.894H116.627L119.303 343.207H111.005V364.894Z" fill="#A0616A"/>
<path d="M109.17 361.043L118.153 360.507V364.355L126.693 370.254C127.114 370.545 127.432 370.963 127.599 371.448C127.766 371.932 127.774 372.458 127.622 372.947C127.469 373.437 127.164 373.864 126.751 374.168C126.338 374.472 125.839 374.636 125.327 374.636H114.632L112.789 370.829L112.069 374.636H108.037L109.17 361.043Z" fill="#2F2E41"/>
<path d="M70.4868 232.436L100.38 233.185V200.877L75.8252 200.999L70.4868 232.436Z" fill="#A0616A"/>
<path d="M100.532 209.175L104.528 222.489L112.823 239.952L130.346 340.823L127.667 354.776L101.69 353.685L90.1205 267.198L89.9345 279.138L89.8444 284.917C89.8444 284.917 94.0642 322.505 89.1453 329.8C84.2264 337.094 89.0451 336.236 89.0451 336.236L88.8107 351.283L58.0309 351.502L64.8213 308.18C64.8213 308.18 68.2693 305.457 66.4246 302.72C64.5798 299.984 68.2126 296.632 68.2126 296.632L66.5832 262.812C66.5832 262.812 68.3873 256.97 66.2652 256.211C64.1432 255.451 65.9866 250.428 65.9866 250.428L65.6713 243.882L72.6538 217.479L100.532 209.175Z" fill="#2F2E41"/>
<path d="M71.5652 200.878L68.509 191.71L66.3261 188.653L65.4529 179.921C65.4529 156.345 70.7116 160.271 70.7116 160.271L77.5712 151.98L85.3751 151.736L91.5421 151.543L96.6693 160.057L104.091 162.676L106.998 177.778L101.69 193.892L101.924 192.695C104.423 197.307 103.787 198.001 101.718 201.464L101.615 202.715C101.372 205.672 103.433 206.181 100.532 206.803C75.6195 212.141 73.2469 222.818 70.2811 218.666C69.6207 217.741 72.4232 206.707 71.4674 206.803C68.8488 207.065 71.5652 200.878 71.5652 200.878Z" fill="#E6E6E6"/>
<path d="M86.8323 148.611C93.9853 148.611 99.7839 142.813 99.7839 135.66C99.7839 128.507 93.9853 122.708 86.8323 122.708C79.6794 122.708 73.8807 128.507 73.8807 135.66C73.8807 142.813 79.6794 148.611 86.8323 148.611Z" fill="#A0616A"/>
<path d="M59.5127 228.066L60.839 182.44L69.4773 186.22L65.1707 227.899C65.8476 228.456 66.3386 229.206 66.578 230.049C66.8174 230.892 66.7938 231.788 66.5104 232.617C66.2269 233.446 65.6972 234.169 64.9919 234.689C64.2866 235.209 63.4394 235.502 62.5635 235.527C61.6876 235.553 60.8246 235.311 60.09 234.833C59.3554 234.355 58.7841 233.665 58.4525 232.854C58.1209 232.043 58.0447 231.15 58.2341 230.294C58.4236 229.438 58.8697 228.661 59.5127 228.066Z" fill="#A0616A"/>
<path d="M70.5571 160.035L69.5525 160.352C66.8683 161.2 64.5241 162.881 62.8602 165.151C61.1962 167.422 60.2992 170.163 60.2992 172.978L58.4095 181.631C61.147 186.327 65.1934 188.655 70.827 188.11L70.5571 160.035Z" fill="#E6E6E6"/>
<path d="M129.606 175.783C129.606 175.143 129.464 174.512 129.189 173.935C128.915 173.357 128.515 172.848 128.02 172.445C127.524 172.041 126.944 171.753 126.323 171.602C125.702 171.45 125.055 171.439 124.429 171.57C123.803 171.7 123.214 171.968 122.705 172.354C122.196 172.741 121.779 173.236 121.485 173.804C121.191 174.371 121.028 174.997 121.006 175.636C120.985 176.275 121.106 176.911 121.361 177.497L112.891 190.844V182.839L103.336 183.872L104.674 198.139C104.781 199.281 105.25 200.358 106.012 201.215C106.774 202.072 107.791 202.664 108.912 202.903C110.034 203.142 111.203 203.017 112.249 202.546C113.294 202.074 114.162 201.282 114.726 200.283L126.175 179.995C127.144 179.795 128.015 179.266 128.639 178.499C129.264 177.731 129.605 176.772 129.606 175.783Z" fill="#A0616A"/>
<path d="M102.562 162.181L103.523 162.484C106.09 163.295 108.333 164.903 109.925 167.075C111.517 169.247 112.375 171.87 112.375 174.562L114.182 182.84C111.564 187.333 107.693 189.559 102.303 189.037L102.562 162.181Z" fill="#E6E6E6"/>
<path d="M70.2083 138.553C70.9316 135.799 71.2035 132.918 72.2485 130.27C73.286 127.641 75.0436 125.358 77.3197 123.682C79.5957 122.006 82.2981 121.006 85.1166 120.796C87.9352 120.587 90.7558 121.176 93.2548 122.496C95.7539 123.816 97.8302 125.814 99.2454 128.26C100.486 130.246 101.009 132.596 100.727 134.919C100.315 137.447 98.6405 139.85 99.1647 142.357C99.5154 144.034 100.782 145.337 101.788 146.724C102.794 148.111 103.588 149.946 102.863 151.498C102.076 153.184 99.8899 153.683 98.0359 153.525C96.1819 153.366 94.3249 152.768 92.4947 153.104L93.3663 149.688C91.1968 151.776 89.0273 153.864 86.8579 155.952C87.0981 153.779 86.0884 151.694 85.3921 149.621C84.6958 147.549 84.3711 145.051 85.7507 143.355C86.5758 142.341 87.8471 141.828 88.9819 141.178C90.1167 140.529 91.2428 139.556 91.3584 138.254C91.5014 136.643 90.0585 135.351 88.6415 134.572C87.2244 133.794 85.5925 133.141 84.7971 131.733C85.368 132.959 85.9389 134.184 86.5098 135.409C84.6113 135.275 82.7819 134.643 81.206 133.575C79.6301 132.508 78.3635 131.044 77.534 129.332L76.7518 129.844C70.2481 137.137 78.5767 148.065 73.6942 151.889C75.8385 148.066 69.0945 142.792 70.2083 138.553Z" fill="#2F2E41"/>
<path d="M239.52 1.38123L120.695 35.7577C102.214 41.1042 91.5661 60.4203 96.9126 78.9012L175.466 350.43C180.813 368.911 200.129 379.559 218.61 374.212L337.436 339.836C355.916 334.489 366.564 315.173 361.217 296.692L282.664 25.1631C277.317 6.68218 258.001 -3.96535 239.52 1.38123Z" fill="#3F3D56"/>
<path d="M240.427 4.51548L224.888 9.01093L226.441 14.3791C227.144 16.8088 226.853 19.4183 225.632 21.6335C224.41 23.8487 222.359 25.488 219.93 26.191L150.505 46.2756C148.075 46.9785 145.466 46.6875 143.251 45.4664C141.036 44.2453 139.396 42.1943 138.693 39.7646L137.14 34.3964L121.601 38.8919C113.563 41.2273 106.779 46.6558 102.738 53.9865C98.6974 61.3172 97.7294 69.9515 100.047 77.9951L178.6 349.524C180.936 357.562 186.364 364.346 193.695 368.387C201.026 372.428 209.66 373.396 217.703 371.079L336.529 336.702C344.567 334.367 351.351 328.938 355.392 321.608C359.433 314.277 360.401 305.643 358.084 297.599L279.53 26.0703C277.195 18.032 271.766 11.2483 264.435 7.20735C257.105 3.16645 248.47 2.19837 240.427 4.51548Z" fill="white"/>
<path d="M106.24 114.345C105.636 114.519 104.987 114.446 104.436 114.143C103.885 113.839 103.477 113.329 103.302 112.725L101.983 108.167C101.897 107.867 101.87 107.554 101.904 107.244C101.939 106.935 102.034 106.635 102.185 106.362C102.335 106.089 102.538 105.849 102.781 105.654C103.024 105.46 103.304 105.315 103.603 105.228C103.902 105.142 104.216 105.115 104.525 105.149C104.835 105.184 105.135 105.279 105.408 105.43C105.681 105.58 105.921 105.783 106.116 106.026C106.31 106.269 106.455 106.549 106.542 106.848L107.86 111.406C108.034 112.011 107.962 112.66 107.658 113.211C107.354 113.761 106.845 114.169 106.24 114.345Z" fill="#3F3D56"/>
<path d="M113.002 137.719C112.398 137.893 111.749 137.82 111.198 137.517C110.647 137.213 110.239 136.703 110.064 136.099L106.434 123.552C106.347 123.252 106.321 122.939 106.355 122.629C106.39 122.319 106.485 122.02 106.635 121.747C106.786 121.474 106.988 121.233 107.232 121.039C107.475 120.844 107.754 120.7 108.054 120.613C108.353 120.526 108.666 120.5 108.976 120.534C109.286 120.569 109.586 120.664 109.858 120.814C110.131 120.965 110.372 121.167 110.566 121.411C110.761 121.654 110.906 121.933 110.992 122.233L114.622 134.78C114.796 135.385 114.724 136.034 114.42 136.585C114.116 137.135 113.607 137.543 113.002 137.719Z" fill="#3F3D56"/>
<path d="M118.439 156.51C117.834 156.684 117.185 156.611 116.634 156.308C116.084 156.004 115.676 155.494 115.5 154.89L111.87 142.343C111.695 141.738 111.768 141.089 112.071 140.538C112.375 139.987 112.885 139.579 113.49 139.404C114.094 139.229 114.744 139.302 115.295 139.605C115.846 139.909 116.254 140.419 116.428 141.024L120.058 153.571C120.233 154.176 120.16 154.825 119.856 155.376C119.552 155.926 119.043 156.334 118.439 156.51Z" fill="#3F3D56"/>
<path d="M302.362 92.1854C301.758 92.3596 301.109 92.2868 300.558 91.9831C300.007 91.6795 299.599 91.1697 299.424 90.5656L290.566 59.949C290.391 59.3445 290.464 58.6953 290.768 58.1442C291.071 57.5932 291.582 57.1853 292.186 57.0105C292.79 56.8356 293.44 56.908 293.991 57.2118C294.542 57.5155 294.95 58.0258 295.125 58.6302L303.982 89.2469C304.156 89.8514 304.083 90.5002 303.78 91.0511C303.476 91.602 302.966 92.0099 302.362 92.1854Z" fill="#3F3D56"/>
<path d="M151.249 108.861C151.039 108.922 150.813 108.903 150.616 108.808L139.106 103.263C139.001 103.213 138.907 103.142 138.829 103.055C138.751 102.968 138.691 102.866 138.653 102.756C138.614 102.645 138.598 102.528 138.604 102.412C138.611 102.295 138.64 102.181 138.691 102.076L144.236 90.566C144.286 90.4608 144.357 90.3666 144.444 90.2887C144.532 90.2109 144.633 90.151 144.744 90.1124C144.854 90.0738 144.971 90.0573 145.087 90.0639C145.204 90.0705 145.318 90.1 145.423 90.1507C145.529 90.2014 145.623 90.2724 145.701 90.3595C145.779 90.4466 145.839 90.5482 145.877 90.6585C145.916 90.7688 145.932 90.8856 145.926 91.0023C145.919 91.1189 145.89 91.2332 145.839 91.3384L140.68 102.047L151.388 107.205C151.551 107.283 151.685 107.409 151.775 107.565C151.864 107.722 151.904 107.902 151.889 108.081C151.874 108.261 151.805 108.431 151.69 108.571C151.576 108.71 151.422 108.811 151.249 108.861Z" fill="#2563EB"/>
<path d="M157.791 106.945C157.616 106.996 157.429 106.991 157.256 106.932C157.082 106.873 156.932 106.762 156.824 106.614C156.717 106.466 156.657 106.288 156.654 106.106C156.651 105.923 156.704 105.743 156.807 105.592L163.464 95.7451L153.617 89.0876C153.52 89.0223 153.437 88.9385 153.372 88.841C153.308 88.7434 153.263 88.6341 153.241 88.5193C153.218 88.4044 153.219 88.2863 153.242 88.1717C153.266 88.057 153.311 87.9481 153.377 87.8512C153.442 87.7543 153.526 87.6713 153.624 87.6069C153.722 87.5425 153.831 87.498 153.946 87.4759C154.061 87.4539 154.179 87.4547 154.294 87.4783C154.408 87.502 154.517 87.548 154.614 87.6138L165.198 94.7695C165.294 94.8349 165.377 94.9188 165.442 95.0163C165.506 95.1138 165.551 95.223 165.573 95.3377C165.595 95.4524 165.594 95.5704 165.571 95.6849C165.547 95.7993 165.502 95.908 165.436 96.0048L158.28 106.588C158.164 106.761 157.991 106.887 157.791 106.945Z" fill="#2563EB"/>
<path d="M274.353 85.778L138.582 125.057C136.488 125.66 134.24 125.408 132.331 124.356C130.423 123.304 129.009 121.538 128.401 119.445L120.772 93.0732C120.169 90.979 120.421 88.731 121.473 86.8224C122.525 84.9137 124.291 83.5004 126.384 82.8924L262.155 43.6136C264.249 43.0103 266.497 43.2623 268.406 44.3144C270.314 45.3665 271.728 47.1327 272.336 49.2255L279.965 75.5972C280.568 77.6914 280.316 79.9394 279.264 81.848C278.212 83.7566 276.446 85.1699 274.353 85.778ZM126.714 84.0319C124.923 84.5522 123.412 85.7616 122.511 87.3948C121.611 89.0279 121.395 90.9515 121.912 92.7435L129.541 119.115C130.061 120.906 131.271 122.417 132.904 123.317C134.537 124.218 136.46 124.433 138.252 123.917L274.023 84.6383C275.814 84.118 277.326 82.9087 278.226 81.2755C279.126 79.6424 279.342 77.7188 278.826 75.9268L271.196 49.5552C270.676 47.7644 269.466 46.2531 267.833 45.3529C266.2 44.4527 264.277 44.237 262.485 44.7532L126.714 84.0319Z" fill="#3F3D56"/>
<path d="M203.694 79.0502L180.903 85.6438C180.298 85.8187 179.649 85.7463 179.098 85.4425C178.547 85.1387 178.139 84.6285 177.964 84.024C177.789 83.4196 177.862 82.7704 178.166 82.2193C178.469 81.6682 178.98 81.2604 179.584 81.0855L202.376 74.4919C202.98 74.317 203.629 74.3894 204.18 74.6932C204.731 74.997 205.139 75.5072 205.314 76.1117C205.489 76.7162 205.417 77.3653 205.113 77.9164C204.809 78.4675 204.299 78.8753 203.694 79.0502Z" fill="#E6E6E6"/>
<path d="M256.323 77.4096L183.96 98.3444C183.355 98.5192 182.706 98.4468 182.155 98.1431C181.604 97.8393 181.196 97.329 181.021 96.7246C180.846 96.1201 180.919 95.4709 181.222 94.9198C181.526 94.3688 182.036 93.9609 182.641 93.7861L255.004 72.8513C255.608 72.6764 256.258 72.7488 256.809 73.0526C257.36 73.3564 257.768 73.8666 257.943 74.4711C258.117 75.0755 258.045 75.7247 257.741 76.2758C257.437 76.8269 256.927 77.2347 256.323 77.4096Z" fill="#E6E6E6"/>
<path d="M202.712 289.172C202.502 289.233 202.276 289.214 202.079 289.119L190.569 283.574C190.464 283.523 190.37 283.452 190.292 283.365C190.214 283.278 190.154 283.176 190.115 283.066C190.077 282.956 190.06 282.839 190.067 282.722C190.074 282.606 190.103 282.492 190.154 282.386L195.698 270.877C195.801 270.664 195.984 270.501 196.206 270.423C196.429 270.345 196.674 270.359 196.886 270.461C197.099 270.564 197.262 270.746 197.34 270.969C197.418 271.192 197.404 271.436 197.302 271.649L192.143 282.357L202.851 287.516C203.013 287.594 203.148 287.719 203.238 287.876C203.327 288.032 203.367 288.212 203.352 288.392C203.337 288.571 203.267 288.742 203.153 288.881C203.039 289.02 202.885 289.122 202.712 289.172Z" fill="#2563EB"/>
<path d="M209.254 287.255C209.078 287.306 208.891 287.301 208.718 287.242C208.545 287.183 208.395 287.072 208.287 286.924C208.179 286.776 208.12 286.599 208.117 286.416C208.114 286.233 208.167 286.054 208.269 285.902L214.926 276.055L205.08 269.397C204.885 269.265 204.75 269.061 204.705 268.829C204.661 268.598 204.71 268.358 204.842 268.163C204.974 267.967 205.178 267.833 205.41 267.788C205.641 267.743 205.881 267.792 206.077 267.924L216.66 275.08C216.856 275.212 216.991 275.416 217.036 275.648C217.08 275.879 217.031 276.119 216.899 276.315L209.744 286.899C209.627 287.071 209.454 287.197 209.254 287.255Z" fill="#2563EB"/>
<path d="M336.663 301.158L200.892 340.436C198.798 341.04 196.55 340.788 194.641 339.736C192.732 338.684 191.319 336.917 190.711 334.825L171.048 266.858C170.445 264.764 170.697 262.516 171.749 260.608C172.801 258.699 174.567 257.286 176.66 256.678L312.431 217.399C314.526 216.795 316.774 217.047 318.682 218.1C320.591 219.152 322.004 220.918 322.612 223.011L342.275 290.977C342.878 293.071 342.626 295.319 341.574 297.228C340.522 299.136 338.756 300.55 336.663 301.158ZM176.99 257.817C175.199 258.337 173.688 259.547 172.788 261.18C171.887 262.813 171.672 264.737 172.188 266.529L191.851 334.495C192.371 336.286 193.58 337.797 195.213 338.697C196.847 339.597 198.77 339.813 200.562 339.297L336.333 300.018C338.124 299.498 339.635 298.288 340.536 296.655C341.436 295.022 341.651 293.099 341.135 291.307L321.472 223.34C320.952 221.55 319.743 220.038 318.11 219.138C316.477 218.238 314.553 218.022 312.761 218.538L176.99 257.817Z" fill="#3F3D56"/>
<path d="M255.157 259.361L232.366 265.954C232.066 266.042 231.752 266.069 231.442 266.034C231.132 266 230.832 265.905 230.559 265.755C230.286 265.605 230.045 265.402 229.85 265.158C229.655 264.915 229.51 264.635 229.424 264.336C229.337 264.036 229.31 263.722 229.345 263.412C229.38 263.102 229.475 262.802 229.626 262.529C229.777 262.256 229.98 262.016 230.224 261.821C230.467 261.627 230.747 261.482 231.047 261.396L253.838 254.802C254.443 254.629 255.091 254.702 255.641 255.006C256.192 255.309 256.599 255.819 256.774 256.423C256.948 257.027 256.876 257.676 256.573 258.226C256.27 258.777 255.761 259.185 255.157 259.361Z" fill="#E6E6E6"/>
<path d="M307.785 257.72L235.422 278.655C235.123 278.742 234.809 278.769 234.499 278.735C234.189 278.7 233.889 278.605 233.616 278.455C233.343 278.305 233.102 278.102 232.907 277.858C232.713 277.615 232.568 277.335 232.481 277.036C232.394 276.736 232.368 276.423 232.402 276.113C232.437 275.803 232.532 275.503 232.683 275.23C232.834 274.957 233.037 274.716 233.281 274.522C233.524 274.327 233.804 274.183 234.104 274.097L306.467 253.162C307.071 252.987 307.72 253.059 308.271 253.363C308.823 253.667 309.23 254.177 309.405 254.782C309.58 255.386 309.508 256.035 309.204 256.586C308.9 257.137 308.39 257.545 307.785 257.72Z" fill="#E6E6E6"/>
<path d="M149.46 159.043L142.809 160.967C141.903 161.229 141.381 162.176 141.643 163.082L142.198 164.998C142.46 165.905 143.407 166.427 144.313 166.165L150.964 164.241C151.87 163.978 152.392 163.031 152.13 162.125L151.576 160.209C151.313 159.303 150.366 158.781 149.46 159.043Z" fill="#E6E6E6"/>
<path d="M203.606 143.378L196.956 145.302C196.05 145.564 195.527 146.511 195.79 147.417L196.344 149.333C196.606 150.24 197.553 150.762 198.46 150.5L205.11 148.576C206.016 148.313 206.539 147.366 206.276 146.46L205.722 144.544C205.46 143.638 204.513 143.115 203.606 143.378Z" fill="#2563EB"/>
<path d="M218.948 138.939L212.297 140.863C211.391 141.125 210.869 142.073 211.131 142.979L211.686 144.895C211.948 145.801 212.895 146.323 213.801 146.061L220.452 144.137C221.358 143.875 221.88 142.928 221.618 142.021L221.064 140.105C220.801 139.199 219.854 138.677 218.948 138.939Z" fill="#E6E6E6"/>
<path d="M188.753 147.205L157.412 156.272C156.506 156.535 155.984 157.482 156.246 158.388L156.8 160.304C157.062 161.21 158.01 161.732 158.916 161.47L190.257 152.403C191.163 152.141 191.685 151.194 191.423 150.288L190.869 148.372C190.606 147.465 189.659 146.943 188.753 147.205Z" fill="#E6E6E6"/>
<path d="M260.948 126.32L229.607 135.387C228.701 135.649 228.179 136.596 228.441 137.502L228.995 139.418C229.258 140.325 230.205 140.847 231.111 140.585L262.452 131.518C263.358 131.255 263.88 130.308 263.618 129.402L263.064 127.486C262.802 126.58 261.855 126.057 260.948 126.32Z" fill="#F2F2F2"/>
<path d="M153.048 170.718L146.398 172.642C145.492 172.905 144.969 173.852 145.232 174.758L145.786 176.674C146.048 177.58 146.995 178.103 147.902 177.84L154.552 175.916C155.458 175.654 155.98 174.707 155.718 173.801L155.164 171.885C154.902 170.978 153.955 170.456 153.048 170.718Z" fill="#E6E6E6"/>
<path d="M207.195 155.053L200.544 156.977C199.638 157.24 199.116 158.187 199.378 159.093L199.932 161.009C200.195 161.915 201.142 162.438 202.048 162.175L208.699 160.251C209.605 159.989 210.127 159.042 209.865 158.136L209.31 156.22C209.048 155.313 208.101 154.791 207.195 155.053Z" fill="#2563EB"/>
<path d="M222.536 150.615L215.886 152.539C214.979 152.801 214.457 153.748 214.719 154.655L215.274 156.571C215.536 157.477 216.483 157.999 217.389 157.737L224.04 155.813C224.946 155.551 225.468 154.604 225.206 153.697L224.652 151.781C224.39 150.875 223.442 150.353 222.536 150.615Z" fill="#E6E6E6"/>
<path d="M192.341 158.881L161 167.948C160.094 168.21 159.572 169.158 159.834 170.064L160.388 171.98C160.651 172.886 161.598 173.408 162.504 173.146L193.845 164.079C194.751 163.817 195.273 162.87 195.011 161.963L194.457 160.047C194.195 159.141 193.247 158.619 192.341 158.881Z" fill="#E6E6E6"/>
<path d="M264.538 137.993L233.197 147.06C232.291 147.323 231.769 148.27 232.031 149.176L232.585 151.092C232.848 151.998 233.795 152.521 234.701 152.258L266.042 143.191C266.948 142.929 267.47 141.982 267.208 141.076L266.654 139.16C266.392 138.253 265.445 137.731 264.538 137.993Z" fill="#F2F2F2"/>
<path d="M185.126 174.151L178.476 176.075C177.569 176.337 177.047 177.284 177.309 178.191L177.864 180.107C178.126 181.013 179.073 181.535 179.979 181.273L186.63 179.349C187.536 179.087 188.058 178.14 187.796 177.233L187.242 175.317C186.979 174.411 186.032 173.889 185.126 174.151Z" fill="#E6E6E6"/>
<path d="M239.272 158.487L232.622 160.411C231.716 160.673 231.194 161.62 231.456 162.527L232.01 164.443C232.272 165.349 233.22 165.871 234.126 165.609L240.776 163.685C241.683 163.423 242.205 162.476 241.942 161.569L241.388 159.653C241.126 158.747 240.179 158.225 239.272 158.487Z" fill="#2563EB"/>
<path d="M254.614 154.049L247.964 155.973C247.057 156.235 246.535 157.182 246.797 158.088L247.352 160.004C247.614 160.911 248.561 161.433 249.467 161.171L256.118 159.247C257.024 158.984 257.546 158.037 257.284 157.131L256.73 155.215C256.468 154.309 255.52 153.786 254.614 154.049Z" fill="#E6E6E6"/>
<path d="M224.419 162.315L193.078 171.382C192.172 171.644 191.65 172.591 191.912 173.497L192.466 175.413C192.728 176.32 193.676 176.842 194.582 176.58L225.923 167.513C226.829 167.251 227.351 166.303 227.089 165.397L226.535 163.481C226.273 162.575 225.325 162.053 224.419 162.315Z" fill="#E6E6E6"/>
<path d="M296.616 141.426L265.275 150.493C264.369 150.755 263.847 151.702 264.109 152.609L264.663 154.525C264.926 155.431 265.873 155.953 266.779 155.691L298.12 146.624C299.026 146.362 299.548 145.414 299.286 144.508L298.732 142.592C298.47 141.686 297.522 141.164 296.616 141.426Z" fill="#F2F2F2"/>
<path d="M166.212 216.886L159.562 218.81C158.655 219.073 158.133 220.02 158.395 220.926L158.95 222.842C159.212 223.748 160.159 224.271 161.065 224.008L167.716 222.084C168.622 221.822 169.144 220.875 168.882 219.969L168.328 218.053C168.065 217.146 167.118 216.624 166.212 216.886Z" fill="#2563EB"/>
<path d="M181.553 212.447L174.903 214.371C173.997 214.633 173.475 215.58 173.737 216.487L174.291 218.403C174.553 219.309 175.501 219.831 176.407 219.569L183.057 217.645C183.964 217.383 184.486 216.436 184.223 215.529L183.669 213.613C183.407 212.707 182.46 212.185 181.553 212.447Z" fill="#E6E6E6"/>
<path d="M223.805 200.694L192.464 209.761C191.557 210.023 191.035 210.97 191.297 211.876L191.852 213.792C192.114 214.699 193.061 215.221 193.967 214.959L225.308 205.892C226.215 205.629 226.737 204.682 226.475 203.776L225.92 201.86C225.658 200.954 224.711 200.431 223.805 200.694Z" fill="#F2F2F2"/>
<path d="M202.328 193.724L195.677 195.648C194.771 195.911 194.249 196.858 194.511 197.764L195.065 199.68C195.328 200.586 196.275 201.108 197.181 200.846L203.832 198.922C204.738 198.66 205.26 197.713 204.998 196.807L204.443 194.891C204.181 193.984 203.234 193.462 202.328 193.724Z" fill="#2563EB"/>
<path d="M217.671 189.284L211.021 191.208C210.114 191.47 209.592 192.417 209.854 193.324L210.409 195.24C210.671 196.146 211.618 196.668 212.524 196.406L219.175 194.482C220.081 194.22 220.603 193.272 220.341 192.366L219.787 190.45C219.525 189.544 218.577 189.022 217.671 189.284Z" fill="#2563EB"/>
<path d="M187.725 198.418L156.384 207.485C155.478 207.747 154.956 208.695 155.218 209.601L155.772 211.517C156.034 212.423 156.982 212.945 157.888 212.683L189.229 203.616C190.135 203.354 190.657 202.407 190.395 201.501L189.841 199.584C189.579 198.678 188.631 198.156 187.725 198.418Z" fill="#E6E6E6"/>
<path d="M259.922 177.53L228.581 186.598C227.675 186.86 227.153 187.807 227.415 188.713L227.969 190.629C228.232 191.536 229.179 192.058 230.085 191.796L261.426 182.728C262.332 182.466 262.854 181.519 262.592 180.613L262.038 178.697C261.776 177.79 260.828 177.268 259.922 177.53Z" fill="#F2F2F2"/>
<path d="M188.286 185.072L181.635 186.996C180.729 187.258 180.207 188.205 180.469 189.112L181.023 191.028C181.285 191.934 182.233 192.456 183.139 192.194L189.789 190.27C190.696 190.008 191.218 189.061 190.956 188.154L190.401 186.238C190.139 185.332 189.192 184.81 188.286 185.072Z" fill="#E6E6E6"/>
<path d="M242.432 169.408L235.781 171.332C234.875 171.594 234.353 172.541 234.615 173.448L235.17 175.364C235.432 176.27 236.379 176.792 237.285 176.53L243.936 174.606C244.842 174.344 245.364 173.397 245.102 172.49L244.548 170.574C244.285 169.668 243.338 169.146 242.432 169.408Z" fill="#2563EB"/>
<path d="M257.773 164.969L251.123 166.893C250.217 167.156 249.695 168.103 249.957 169.009L250.511 170.925C250.773 171.831 251.721 172.354 252.627 172.091L259.277 170.167C260.183 169.905 260.706 168.958 260.443 168.052L259.889 166.136C259.627 165.229 258.68 164.707 257.773 164.969Z" fill="#E6E6E6"/>
<path d="M227.829 174.103L196.488 183.17C195.582 183.432 195.06 184.379 195.322 185.285L195.877 187.202C196.139 188.108 197.086 188.63 197.992 188.368L229.333 179.301C230.239 179.039 230.762 178.091 230.499 177.185L229.945 175.269C229.683 174.363 228.736 173.841 227.829 174.103Z" fill="#E6E6E6"/>
<path d="M300.025 153.216L268.684 162.283C267.777 162.545 267.255 163.492 267.517 164.399L268.072 166.315C268.334 167.221 269.281 167.743 270.187 167.481L301.528 158.414C302.435 158.152 302.957 157.205 302.695 156.298L302.14 154.382C301.878 153.476 300.931 152.954 300.025 153.216Z" fill="#F2F2F2"/>
<path d="M172.006 194.932C173.48 194.932 174.675 193.737 174.675 192.263C174.675 190.789 173.48 189.594 172.006 189.594C170.531 189.594 169.336 190.789 169.336 192.263C169.336 193.737 170.531 194.932 172.006 194.932Z" fill="#2563EB"/>
<path d="M168.874 184.106C170.348 184.106 171.543 182.911 171.543 181.437C171.543 179.963 170.348 178.768 168.874 178.768C167.4 178.768 166.204 179.963 166.204 181.437C166.204 182.911 167.4 184.106 168.874 184.106Z" fill="#2563EB"/>
<path d="M188.027 27.6063L170.364 32.7163C169.987 32.8238 169.582 32.7775 169.239 32.5874C168.896 32.3974 168.642 32.0791 168.533 31.7023C168.424 31.3255 168.469 30.9209 168.657 30.577C168.846 30.233 169.163 29.9779 169.54 29.8674L187.203 24.7573C187.391 24.7023 187.587 24.6849 187.781 24.7059C187.975 24.727 188.163 24.7862 188.334 24.8801C188.505 24.974 188.656 25.1008 188.778 25.2531C188.9 25.4055 188.991 25.5805 189.045 25.768C189.1 25.9556 189.116 26.152 189.095 26.346C189.073 26.54 189.013 26.7278 188.918 26.8986C188.824 27.0694 188.696 27.2198 188.543 27.3412C188.39 27.4627 188.215 27.5527 188.027 27.6063Z" fill="white"/>
<path d="M196.732 24.73C197.387 24.73 197.918 24.1989 197.918 23.5437C197.918 22.8885 197.387 22.3574 196.732 22.3574C196.077 22.3574 195.546 22.8885 195.546 23.5437C195.546 24.1989 196.077 24.73 196.732 24.73Z" fill="white"/>
<path d="M20.3895 374.789C20.2278 374.342 20.1157 373.878 20.0552 373.406C20.0486 373.372 20.046 373.337 20.0474 373.302C19.7453 370.43 21.2279 367.767 22.9078 365.065L25.2109 361.365C25.4254 361.02 25.7378 360.747 26.1083 360.581C26.4788 360.415 26.8904 360.363 27.2905 360.432C27.6906 360.502 28.061 360.689 28.3542 360.969C28.6473 361.25 28.8501 361.612 28.9363 362.009C29.0615 362.584 29.1866 363.166 29.3062 363.747C30.5461 362.716 31.8407 361.761 32.9743 360.936C35.9679 358.764 38.9606 356.589 41.9524 354.412C42.2804 354.173 42.6722 354.038 43.0777 354.023C43.4832 354.008 43.8839 354.114 44.2286 354.329C44.5732 354.543 44.8461 354.855 45.0123 355.225C45.1785 355.595 45.2304 356.007 45.1615 356.407L44.592 359.708C43.8358 364.089 42.9788 369.053 40.9511 373.394C40.7241 373.891 40.4811 374.375 40.2294 374.831L40.1448 374.985H20.4601L20.3895 374.789Z" fill="#F0F0F0"/>
<path d="M0.702583 375.411L366.297 375.593C366.484 375.592 366.663 375.517 366.794 375.385C366.926 375.252 367 375.073 367 374.887C367 374.7 366.926 374.521 366.794 374.389C366.663 374.256 366.484 374.181 366.297 374.18L0.702583 373.998C0.515887 373.999 0.33716 374.074 0.205476 374.206C0.0737923 374.338 -0.00012207 374.518 -0.00012207 374.704C-0.00012207 374.891 0.0737923 375.07 0.205476 375.202C0.33716 375.335 0.515887 375.41 0.702583 375.411Z" fill="#CACACA"/>
<path d="M252.91 308.706C250.985 309.263 248.938 309.237 247.029 308.63C245.119 308.024 243.432 306.865 242.181 305.3C240.93 303.735 240.172 301.834 240.001 299.838C239.83 297.841 240.255 295.839 241.223 294.085C242.19 292.33 243.656 290.902 245.435 289.98C247.214 289.058 249.226 288.685 251.217 288.907C253.209 289.129 255.089 289.937 256.621 291.228C258.154 292.519 259.269 294.235 259.826 296.16C260.572 298.741 260.263 301.512 258.966 303.865C257.669 306.218 255.49 307.959 252.91 308.706Z" fill="#E6E6E6"/>
<path d="M253.656 296.903L250.777 297.736L249.943 294.856C249.907 294.73 249.846 294.613 249.764 294.51C249.682 294.408 249.581 294.322 249.466 294.259C249.234 294.131 248.96 294.1 248.706 294.174C248.451 294.248 248.236 294.42 248.108 294.652C247.98 294.884 247.95 295.157 248.024 295.412L248.857 298.292L245.977 299.125C245.723 299.199 245.508 299.37 245.381 299.602C245.253 299.834 245.223 300.108 245.296 300.362C245.37 300.616 245.541 300.831 245.773 300.959C246.005 301.087 246.278 301.118 246.532 301.044L249.412 300.211L250.245 303.091C250.282 303.217 250.343 303.335 250.425 303.437C250.506 303.54 250.608 303.625 250.723 303.689C250.838 303.752 250.964 303.792 251.094 303.807C251.225 303.821 251.357 303.81 251.483 303.773C251.609 303.737 251.726 303.676 251.829 303.594C251.932 303.512 252.017 303.411 252.08 303.296C252.144 303.181 252.184 303.055 252.198 302.924C252.213 302.794 252.202 302.662 252.165 302.536L251.332 299.656L254.212 298.823C254.466 298.749 254.68 298.577 254.808 298.345C254.936 298.113 254.966 297.84 254.892 297.586C254.819 297.331 254.647 297.117 254.416 296.989C254.184 296.861 253.911 296.83 253.656 296.903Z" fill="white"/>
<path d="M281.38 300.469C279.455 301.026 277.409 300.999 275.499 300.393C273.59 299.787 271.903 298.628 270.652 297.063C269.401 295.497 268.642 293.597 268.471 291.6C268.301 289.604 268.726 287.602 269.693 285.847C270.66 284.093 272.126 282.664 273.905 281.743C275.684 280.821 277.697 280.448 279.688 280.67C281.679 280.892 283.56 281.7 285.092 282.99C286.624 284.281 287.739 285.998 288.296 287.922C289.043 290.503 288.733 293.275 287.436 295.628C286.139 297.981 283.961 299.722 281.38 300.469Z" fill="#E6E6E6"/>
<path d="M282.127 288.667L279.247 289.5L277.327 290.055L274.447 290.888C274.193 290.962 273.978 291.134 273.85 291.366C273.722 291.598 273.692 291.871 273.765 292.126C273.839 292.381 274.011 292.596 274.243 292.723C274.475 292.851 274.748 292.882 275.003 292.808L277.883 291.975L279.802 291.42L282.682 290.587C282.808 290.55 282.926 290.489 283.029 290.408C283.132 290.326 283.217 290.224 283.281 290.109C283.344 289.994 283.384 289.868 283.399 289.737C283.414 289.607 283.402 289.475 283.366 289.349C283.329 289.222 283.268 289.105 283.186 289.002C283.104 288.899 283.003 288.814 282.888 288.751C282.773 288.687 282.646 288.647 282.516 288.633C282.385 288.619 282.253 288.63 282.127 288.667Z" fill="white"/>
<path d="M309.85 292.232C307.926 292.789 305.879 292.763 303.97 292.157C302.06 291.55 300.373 290.391 299.122 288.826C297.871 287.261 297.112 285.36 296.942 283.364C296.771 281.368 297.196 279.366 298.164 277.611C299.131 275.856 300.597 274.428 302.376 273.506C304.155 272.585 306.167 272.211 308.158 272.434C310.15 272.656 312.03 273.463 313.562 274.754C315.095 276.045 316.21 277.761 316.766 279.686C317.513 282.267 317.204 285.039 315.907 287.392C314.61 289.745 312.431 291.486 309.85 292.232Z" fill="#E6E6E6"/>
<path d="M312.376 280.456L308.452 277.227C308.366 277.156 308.267 277.103 308.16 277.07C308.053 277.038 307.94 277.026 307.829 277.037C307.718 277.048 307.609 277.081 307.511 277.133C307.412 277.186 307.325 277.257 307.254 277.344C307.183 277.43 307.129 277.53 307.097 277.637C307.064 277.744 307.053 277.856 307.064 277.967C307.074 278.079 307.107 278.187 307.16 278.285C307.212 278.384 307.284 278.472 307.37 278.543L309.908 280.631L307.717 281.264L305.798 281.82L302.918 282.653C302.663 282.726 302.448 282.898 302.32 283.13C302.193 283.362 302.162 283.636 302.236 283.89C302.309 284.145 302.481 284.36 302.713 284.488C302.945 284.616 303.219 284.646 303.473 284.573L306.353 283.74L308.273 283.184L310.551 282.525L309.469 285.799C309.399 286.013 309.417 286.247 309.518 286.448C309.62 286.65 309.797 286.802 310.011 286.873C310.226 286.944 310.459 286.927 310.661 286.826C310.862 286.724 311.016 286.547 311.087 286.333L312.681 281.509C312.724 281.322 312.719 281.127 312.665 280.943C312.612 280.758 312.512 280.591 312.376 280.456Z" fill="white"/>
</g>
<defs>
<clipPath id="clip0_6_2629">
<rect width="367" height="375.593" fill="white"/>
</clipPath>
</defs>
</svg>
