<svg width="416" height="213" viewBox="0 0 416 213" fill="none" xmlns="http://www.w3.org/2000/svg">
<g clip-path="url(#clip0_6_2725)">
<path d="M397.535 117.557L396.232 127.934L392.998 153.707H328.025C328.532 147.931 329.226 139.616 329.967 130.64C330.04 129.744 330.116 128.841 330.189 127.934C332.047 105.371 334.081 79.8379 334.081 79.8379L342.622 81.4292L359.195 84.5108L365.948 85.7659L384.032 89.1333C393.049 90.8085 399.251 103.863 397.535 117.557Z" fill="#F2F2F2"/>
<path d="M348.389 38.085L356.379 52.0669L341.022 62.9501L334.471 45.7637L348.389 38.085Z" fill="#FFB6B6"/>
<path d="M338.217 51.3124C349.149 51.3124 358.011 42.4503 358.011 31.5185C358.011 20.5866 349.149 11.7246 338.217 11.7246C327.285 11.7246 318.423 20.5866 318.423 31.5185C318.423 42.4503 327.285 51.3124 338.217 51.3124Z" fill="#FFB6B6"/>
<path d="M336.796 35.9438C335.224 33.5518 335.841 32.3007 334.525 31.4216C334.525 31.4216 333.996 31.0679 330.206 30.8662C329.358 24.7597 328.298 24.0192 328.298 24.0192C327.078 23.1657 325.266 23.443 324.139 23.965C321.756 25.069 322.032 27.4538 320.427 27.9101C318.21 28.5405 314.177 24.9867 313.779 20.9182C313.455 17.5995 315.593 14.3762 316.441 14.5467C317.282 14.7158 319.295 12.1457 320.382 12.1853C321.125 12.2124 324.158 10.8941 324.974 10.9971C325.865 11.1097 328.803 12.6429 328.925 12.2926C329.776 9.85845 329.526 9.18307 330.248 8.48671C331.527 7.25276 333.62 8.11205 336.903 8.57337C343.657 9.52254 344.836 7.29536 348.298 8.80496C350.046 9.56753 351.509 11.6241 354.364 15.7061C358.357 21.4148 360.353 24.2691 360.366 27.5983C360.379 30.9934 358.735 30.7779 358.013 35.8041C357.209 41.3992 358.917 43.9575 357.051 45.7752C355.609 47.1801 352.678 47.5136 351.137 46.2806C348.501 44.1697 351.951 39.0759 349.033 35.3544C347.242 33.07 343.64 32.0535 341.99 33.1828C340.124 34.4596 341.152 38.2072 339.84 38.5626C338.716 38.8669 337.07 36.3606 336.796 35.9438Z" fill="#2F2E41"/>
<path d="M382.905 113.903C382.353 123.343 380.16 126.323 379.392 137.472C379.224 139.92 379.123 142.761 379.123 146.149C379.123 147.013 379.128 147.848 379.128 148.664C379.128 150.401 379.094 152.043 378.892 153.708C378.739 155.037 378.475 156.376 378.038 157.787H335.407C335.402 157.777 335.402 157.768 335.397 157.758C335.148 156.674 334.989 155.637 334.87 154.644C334.831 154.327 334.797 154.015 334.769 153.708C334.73 153.348 334.697 152.993 334.663 152.642C334.533 151.246 334.404 149.926 334.097 148.664C333.684 146.922 332.935 145.28 331.399 143.697C330.771 143.049 330.142 142.545 329.528 142.103C329.408 142.022 329.293 141.94 329.173 141.859C327.474 140.692 325.866 139.852 324.474 137.472C324.45 137.438 324.431 137.4 324.412 137.367C324.172 136.949 323.548 135.855 323.097 134.396C322.622 132.879 322.334 130.974 322.852 129.026C324.086 124.409 328.654 123.948 332.388 119.283C332.791 118.779 333.19 118.222 333.569 117.603C335.258 114.858 335.714 112.439 336.252 109.565C336.338 109.099 336.415 108.638 336.477 108.192C336.525 107.856 336.568 107.525 336.602 107.199C336.899 104.458 336.755 102.097 336.405 99.9855C335.263 93.0697 331.894 88.7889 334.274 82.5834C335.023 80.6352 336.084 79.1713 337.154 77.9187C339.419 75.2646 341.747 73.5418 341.344 70.1153C340.936 66.6598 338.315 66.1846 338.023 63.1658C337.874 61.6398 338.373 60.0321 339.309 58.4531V58.4484C342.304 53.3659 349.781 48.6867 354.532 48.8355C355.41 48.8596 356.188 49.0562 356.835 49.4354C359.182 50.8175 358.203 53.8362 361.798 58.0693C364.471 61.2127 367.494 62.4701 368.642 63.0651C373.186 65.4361 376.882 72.4285 379.392 81.3693C379.411 81.4366 379.43 81.5036 379.449 81.5758C381 87.1764 382.094 93.5354 382.636 99.9855C382.866 102.716 383.001 105.461 383.029 108.178C383.054 110.347 383.005 112.228 382.905 113.903Z" fill="#2563EB"/>
<path d="M350.981 146.245L350.112 148.664L349.565 150.18L348.297 153.708L346.829 157.787H337.389L338.973 153.708L339.707 151.807L340.926 148.664L342.97 143.385L350.981 146.245Z" fill="#FFB6B6"/>
<path d="M379.541 80.5435C379.517 80.8556 379.483 81.201 379.449 81.5755C379.075 85.386 378.192 92.2057 376.901 99.9851C376.22 104.088 375.423 108.461 374.525 112.804C372.596 122.177 370.197 131.406 367.485 137.472C367 138.566 366.501 139.555 365.992 140.428C365.604 141.095 365.195 141.753 364.768 142.4C363.386 144.527 361.836 146.542 360.228 148.424C360.166 148.505 360.094 148.582 360.022 148.664C359.763 148.971 359.494 149.273 359.225 149.575C357.91 151.058 356.567 152.44 355.266 153.707C353.682 155.253 352.156 156.621 350.788 157.787H335.46L335.397 157.758L333.19 156.779C333.19 156.779 333.818 156.04 334.869 154.643C335.086 154.36 335.316 154.048 335.565 153.707C335.872 153.29 336.204 152.829 336.559 152.33C337.298 151.284 338.138 150.055 339.04 148.664C340.787 145.971 342.778 142.66 344.789 138.825C345.02 138.379 345.255 137.928 345.49 137.472C345.495 137.457 345.505 137.443 345.509 137.429C345.908 136.651 346.301 135.85 346.695 135.034C350.03 128.094 350.985 122.335 351.259 120.468C351.643 117.829 352.175 114.138 352.031 110.078C351.935 107.4 351.547 104.568 350.621 101.756V101.751C350.428 101.161 350.212 100.571 349.968 99.9851C349.531 98.9341 349.013 97.8974 348.398 96.8753C345.687 92.3737 343.484 92.1864 341.732 87.2815C341.214 85.8275 340.038 82.5449 340.398 79.0798V79.0751C340.442 78.6479 340.513 78.216 340.609 77.7839V77.7792C340.633 77.6592 340.667 77.5346 340.701 77.4146C340.974 76.354 341.425 75.3027 342.111 74.3045C343.45 72.3658 345.279 71.2138 346.915 70.5277L346.92 70.5228C348.811 69.7358 350.443 69.5678 350.76 69.539C357.771 68.9152 363.209 74.8085 366.18 78.0288C367.326 79.2717 368.378 80.3133 369.338 81.1626C376.81 87.8336 378.859 83.5718 379.391 81.369C379.473 81.0283 379.517 80.7356 379.541 80.5435Z" fill="#2563EB"/>
<path d="M379.564 80.2939C379.564 80.3178 379.56 80.3994 379.541 80.5339C379.55 80.4617 379.555 80.3898 379.56 80.3225C379.56 80.3082 379.56 80.2986 379.564 80.2939Z" fill="#2563EB"/>
<path d="M341.449 181.562H84.1879C81.7976 181.562 79.8494 183.506 79.8494 185.896C79.8494 188.291 81.7976 190.235 84.1879 190.235H341.449C343.839 190.235 345.783 188.291 345.783 185.896C345.783 183.506 343.839 181.562 341.449 181.562Z" fill="#FCB27E"/>
<path d="M284.358 203.965H141.274C138.884 203.965 136.941 205.908 136.941 208.298C136.941 210.688 138.884 212.637 141.274 212.637H284.358C286.748 212.637 288.696 210.688 288.696 208.298C288.696 205.908 286.748 203.965 284.358 203.965Z" fill="#FDC7A1"/>
<path d="M112.815 39.0055L129.028 32.1821L135.982 46.4384L118.944 53.3927L112.815 39.0055Z" fill="#FFB6B6"/>
<path opacity="0.1" d="M112.815 39.0055L129.028 32.1821L135.982 46.4384L118.944 53.3927L112.815 39.0055Z" fill="black"/>
<path d="M115.12 33.573L131.114 52.0018C131.114 52.0018 119.988 87.1209 108.861 90.2503C97.7339 93.3797 77.2188 108.679 77.2188 108.679L51.488 91.9889L64.0057 73.56C64.0057 73.56 94.2568 32.1821 102.254 32.1821C110.252 32.1821 115.12 33.573 115.12 33.573Z" fill="#2563EB"/>
<path d="M93.5092 153.708H56.276L53.922 150.561L44.3112 137.713L42.0997 134.758C42.0997 134.758 33.7546 119.458 35.4932 105.55C37.2317 91.6411 55.3129 88.5117 55.3129 88.5117H56.057L78.1924 107.963L76.8711 126.065L83.881 137.713L93.5092 153.708Z" fill="#2F2E41"/>
<path d="M63.9014 153.708H53.922V138.93L63.9014 153.708Z" fill="#2F2E41"/>
<path d="M279.143 131.273L277.902 137.713L274.821 153.708H212.931C213.415 150.123 214.075 144.963 214.781 139.392C214.851 138.836 214.924 138.276 214.993 137.713C216.763 123.711 218.7 107.865 218.7 107.865L226.836 108.853L242.623 110.765L249.055 111.544L266.281 113.634C274.87 114.673 280.777 122.775 279.143 131.273Z" fill="#F2F2F2"/>
<path d="M366.729 153.708H333.16C333.672 153.106 333.96 152.758 333.96 152.758L344.023 151.096L364.757 147.675C364.757 147.675 365.703 150.119 366.729 153.708Z" fill="#2F2E41"/>
<path d="M224.341 45.96L238.94 66.6052L213.475 67.3656L210.742 47.964L224.341 45.96Z" fill="#A0616A"/>
<path opacity="0.1" d="M224.341 45.96L238.94 66.6052L213.475 67.3656L210.742 47.964L224.341 45.96Z" fill="black"/>
<path d="M152.349 88.735C150.476 83.3315 146.169 79.918 142.731 81.1107C139.292 82.3033 138.024 87.6498 139.898 93.0549C140.618 95.2244 141.846 97.19 143.48 98.7874L151.706 121.582L162.321 117.494L153.085 95.4565C153.38 93.1894 153.127 90.8846 152.349 88.735Z" fill="#A0616A"/>
<path d="M251.165 78.2161L251.145 99.2562L249.188 107.028L245.161 123.012L242.23 137.713L240.046 148.666L239.267 152.578C238.68 152.971 238.095 153.347 237.511 153.708H186.651C183.762 151.973 182.145 150.624 182.145 150.624C182.145 150.624 182.945 149.873 183.859 148.666C185.403 146.629 187.27 143.291 186.126 140.102C185.886 139.435 185.824 138.621 185.897 137.713C186.363 131.726 192.642 121.6 192.642 121.6L191.342 106.572L190.772 99.9864L194.792 67.8749L207.898 60.2565L210.16 60.0376L232.494 58.8311L241.725 59.363L242.145 59.4778L251.165 78.2161Z" fill="#CCCCCC"/>
<path d="M252.157 153.708H241.03L240.54 148.666L240.529 148.565L243.68 148.35L251.875 147.79L252.018 150.808L252.129 153.124L252.157 153.708Z" fill="#FFB6B6"/>
<path d="M254.896 83.3027L259.57 110.727L255.756 137.713L255.161 141.913L254.111 149.33L253.788 151.611L253.798 151.858L253.878 153.708H240.665L240.178 148.666L240.136 148.214L239.142 137.887L239.125 137.713L237.014 115.814L241.152 99.986L241.458 98.8212V98.8177L243.258 71.7169L241.864 59.4009L241.85 59.2861C241.878 59.3035 241.902 59.3209 241.93 59.3383C242.003 59.3835 242.076 59.4287 242.145 59.4774C250.268 64.6305 255.108 73.6711 254.896 83.3027Z" fill="#CCCCCC"/>
<path d="M199.526 73.1295L194.445 67.874C194.445 67.874 183.568 72.7776 183.025 75.4981C182.483 78.2186 163.278 118.175 163.278 118.175L154.923 95.8596L144.047 103.121C144.047 103.121 152.774 137.767 160.935 139.394C169.097 141.02 196.45 98.3865 196.45 98.3865L199.526 73.1295Z" fill="#CCCCCC"/>
<path d="M405.84 137.472H10.1552C4.55456 137.472 0 142.031 0 147.632C0 153.232 4.55456 157.787 10.1552 157.787H405.84C411.441 157.787 416 153.232 416 147.632C416 142.031 411.441 137.472 405.84 137.472Z" fill="#E6E6E6"/>
<path d="M248.849 106.514L248.08 142.413C248.006 145.888 245.167 148.666 241.691 148.666H175.653C172.259 148.666 169.457 146.013 169.272 142.625L167.31 106.725C167.109 103.065 170.024 99.9863 173.69 99.9863H242.461C246.043 99.9863 248.926 102.932 248.849 106.514Z" fill="#3F3D56"/>
<path d="M142.241 47.671C150.967 47.671 158.041 40.5972 158.041 31.8711C158.041 23.1451 150.967 16.0713 142.241 16.0713C133.515 16.0713 126.441 23.1451 126.441 31.8711C126.441 40.5972 133.515 47.671 142.241 47.671Z" fill="#FFB6B6"/>
<path d="M115.815 73.2124L117.554 91.9889L129.376 139.626L119.162 143.205L101.906 91.2935L99.5231 70.4307L115.815 73.2124Z" fill="#FFB6B6"/>
<path d="M111.112 106.514L110.343 142.413C110.268 145.888 107.43 148.666 103.954 148.666H37.9158C34.522 148.666 31.7202 146.013 31.535 142.625L29.5724 106.725C29.3723 103.065 32.2869 99.9863 35.9532 99.9863H104.723C108.306 99.9863 111.189 102.932 111.112 106.514Z" fill="#3F3D56"/>
<path d="M131.258 148.909C138.15 148.909 143.736 146.438 143.736 143.39C143.736 140.342 138.15 137.871 131.258 137.871C124.367 137.871 118.78 140.342 118.78 143.39C118.78 146.438 124.367 148.909 131.258 148.909Z" fill="#FFB6B6"/>
<path d="M91.3012 76.0828L98.4293 38.093C98.4293 38.093 118.249 35.3113 118.944 41.9179C119.64 48.5245 118.448 80.8116 118.448 80.8116L91.3012 76.0828Z" fill="#2563EB"/>
<path d="M135.863 34.3555C135.863 34.3555 145.637 30.8673 149.76 28.9904C153.883 27.1136 162.073 40.2044 162.255 33.2907C162.438 26.377 159.607 23.4777 159.607 23.4777C159.607 23.4777 158.901 8.35297 143.663 10.2439C143.663 10.2439 147.014 2.67685 136.013 1.50674C125.011 0.336636 107.894 26.9046 109.427 30.875C110.96 34.8455 112.798 38.128 108.449 42.3733C104.1 46.6186 95.9562 70.5778 102.152 77.0251C108.348 83.4724 108.755 86.2701 104.509 90.2811C100.264 94.2921 90.2297 103.014 101.079 104.528C111.929 106.042 100.087 104.911 108.175 97.7961C116.264 90.6814 128.067 90.9719 123.66 79.5569C119.253 68.1419 126.909 51.7843 125.951 49.3028C124.993 46.8212 128.098 31.0634 128.098 31.0634C128.098 31.0634 135.323 30.0019 135.863 34.3555Z" fill="#2F2E41"/>
<path d="M216.536 53.4327C226.035 53.4327 233.735 45.7324 233.735 36.2335C233.735 26.7346 226.035 19.0342 216.536 19.0342C207.037 19.0342 199.337 26.7346 199.337 36.2335C199.337 45.7324 207.037 53.4327 216.536 53.4327Z" fill="#A0616A"/>
<path d="M217.909 13.1102C217.411 13.4007 216.744 12.9612 216.585 12.4074C216.425 11.8537 216.611 11.2658 216.795 10.7198L217.723 7.97122C218.381 6.02187 219.08 4.0044 220.505 2.52068C222.657 0.281259 226.076 -0.28844 229.154 0.124287C233.106 0.654311 237.006 2.79459 238.844 6.33382C240.682 9.87305 239.899 14.8115 236.578 17.0197C241.311 22.4444 242.961 28.4901 242.701 35.6845C242.44 42.879 234.6 49.5002 229.487 54.5685C228.345 53.8763 227.307 50.6327 227.935 49.4543C228.563 48.276 227.663 46.9108 228.441 45.8254C229.219 44.74 229.869 46.4683 229.083 45.3891C228.587 44.708 230.523 43.1413 229.786 42.7337C226.219 40.7622 225.033 36.3167 222.793 32.9123C220.091 28.8061 215.467 26.0253 210.573 25.5639C207.877 25.3098 205.03 25.7701 202.82 27.3351C200.611 28.9002 199.18 31.6969 199.692 34.3557C198.365 33.0083 197.705 31.0337 197.954 29.159C198.203 27.2844 199.357 25.5508 200.989 24.5968C199.997 21.3135 200.847 17.5367 203.152 14.9959C205.456 12.4551 214.804 12.8879 218.169 13.5566L217.909 13.1102Z" fill="#2F2E41"/>
<path d="M218.431 25.6636C222.887 26.1446 226.104 30.0045 228.821 33.5691C230.387 35.6236 232.027 37.8926 231.988 40.4755C231.948 43.0869 230.202 45.3268 229.368 47.8017C228.004 51.8469 229.333 56.6598 232.58 59.4315C229.372 60.0403 225.904 57.6348 225.35 54.4167C224.705 50.6705 227.545 47.0547 227.209 43.2683C226.912 39.9324 224.283 37.365 222.048 34.8708C219.814 32.3765 217.715 29.0667 218.743 25.8794L218.431 25.6636Z" fill="#2F2E41"/>
<path d="M285.048 139.647C280.634 142.157 278.352 146.469 279.95 149.278C281.548 152.087 286.421 152.328 290.835 149.816C292.613 148.837 294.13 147.446 295.26 145.76L313.826 134.887L308.538 126.283L290.796 137.915C288.769 138.025 286.798 138.619 285.048 139.647Z" fill="#FFB6B6"/>
<path d="M347.911 59.9136C347.356 59.6937 342.488 57.85 338.043 60.2842C332.938 63.0803 332.149 69.4633 331.873 71.7021C331.234 76.8737 333.116 78.0329 333.513 83.2685C334.257 93.0638 336.217 81.8893 333.087 86.3604C332.003 87.908 320.936 111.891 314.833 116.589C302.963 125.725 295.425 132.16 295.425 132.16L304.03 141.507C304.03 141.507 317.628 137.884 329.647 130.08C341.975 122.075 348.139 118.073 352.908 110.243C353.319 109.568 363.145 92.881 357.868 74.4288C356.664 70.2199 354.459 62.5083 347.911 59.9136Z" fill="#2563EB"/>
<path d="M392.346 106.514L391.576 142.413C391.502 145.888 388.663 148.666 385.188 148.666H319.149C315.755 148.666 312.954 146.013 312.768 142.625L310.806 106.725C310.606 103.065 313.52 99.9863 317.187 99.9863H385.957C389.54 99.9863 392.422 102.932 392.346 106.514Z" fill="#3F3D56"/>
</g>
<defs>
<clipPath id="clip0_6_2725">
<rect width="416" height="212.637" fill="white"/>
</clipPath>
</defs>
</svg>
